<svg width="24" height="24" viewBox="0 0 24 24" fill="none" xmlns="http://www.w3.org/2000/svg">
<g clip-path="url(#clip0_3391_28)">
<path d="M0.304688 12C0.304688 18.461 5.53907 23.6954 12 23.6954C18.461 23.6954 23.6954 18.461 23.6954 12C23.6954 5.53907 18.461 0.304688 12 0.304688C5.53907 0.304688 0.304688 5.53907 0.304688 12Z" fill="#0C0C4F" stroke="#EC796B" stroke-width="0.607596"/>
<path d="M6.70703 9.17188L7.00391 8.25782C7.0625 8.07032 7.21094 7.92579 7.39844 7.8711L8.31641 7.58594C8.44531 7.54688 8.44531 7.36719 8.32031 7.32813L7.40234 7.03126C7.21875 6.97266 7.07422 6.82422 7.01563 6.63672L6.73438 5.71876C6.69531 5.58985 6.51562 5.58985 6.47266 5.71485L6.17578 6.63282C6.11719 6.81641 5.96875 6.96094 5.78125 7.01954L4.86328 7.30079C4.73438 7.33985 4.73438 7.51954 4.86328 7.56251L5.77734 7.85547C5.96094 7.91797 6.10938 8.06641 6.16406 8.25001L6.44922 9.17188C6.48828 9.29688 6.66406 9.30079 6.70703 9.17188Z" fill="#FAFAFA"/>
<path d="M21.2422 8.64064C20.8633 8.21486 20.2734 7.97658 19.6953 7.87893C19.1172 7.78518 18.5078 7.79299 17.9375 7.89455C16.7773 8.09377 15.7266 8.57033 14.8086 9.16408C14.332 9.45314 13.9258 9.78908 13.5039 10.1328C13.3008 10.3047 13.1172 10.4883 12.9219 10.6719L12.3984 11.1953C11.8242 11.793 11.2617 12.336 10.7148 12.7891C10.168 13.2383 9.65625 13.5781 9.15234 13.8164C8.64844 14.0547 8.10938 14.1953 7.40625 14.2188C6.70703 14.2461 5.88281 14.1172 5 13.9102C4.11328 13.7031 3.18359 13.4102 2.14062 13.1563C2.50391 14.1641 3.05078 15.0547 3.75391 15.8672C4.46484 16.668 5.35156 17.3946 6.49219 17.875C7.61328 18.3672 9.02344 18.543 10.3438 18.2774C11.668 18.0196 12.8281 17.4102 13.7656 16.6992C14.707 15.9844 15.4688 15.1719 16.1133 14.3242C16.2891 14.0899 16.3828 13.9571 16.5117 13.7774L16.8633 13.25C17.1094 12.9258 17.3359 12.5547 17.5781 12.2344C18.0586 11.5625 18.5273 10.8867 19.0742 10.2696C19.3516 9.95314 19.6406 9.65236 19.9844 9.3633C20.1562 9.22268 20.3398 9.08596 20.5469 8.96096C20.7539 8.82815 20.9727 8.72268 21.2422 8.64064Z" fill="#EC796B"/>
<path d="M21.2422 8.64067C20.8359 7.61333 20.0781 6.74614 19.0625 6.10942C18.0508 5.47661 16.6484 5.1563 15.2578 5.42974C14.5703 5.56255 13.9062 5.82036 13.3242 6.1602C12.7422 6.50005 12.2188 6.9063 11.7695 7.3438C11.543 7.56255 11.3398 7.79302 11.1367 8.02349L10.6094 8.69536L9.79688 9.77349C8.76172 11.1641 7.64453 12.793 5.81641 13.2735C4.01953 13.75 3.23828 13.3282 2.14062 13.1563C2.34375 13.6719 2.58984 14.1758 2.92578 14.6172C3.25781 15.0704 3.64844 15.4922 4.13281 15.8594C4.37891 16.0313 4.63672 16.2032 4.92578 16.3516C5.21094 16.4922 5.51953 16.6172 5.85156 16.711C6.50781 16.8907 7.24609 16.9532 7.96094 16.8555C8.67578 16.7618 9.35547 16.5352 9.95312 16.2344C10.5547 15.9336 11.082 15.5704 11.5469 15.1875C12.4805 14.4141 13.2031 13.5625 13.8125 12.6993C14.1211 12.2657 14.4023 11.8282 14.6602 11.3868L14.9648 10.8633C15.0547 10.711 15.1484 10.5586 15.2461 10.4141C15.6289 9.83599 16.0078 9.37505 16.4648 9.02739C16.9141 8.67192 17.543 8.41021 18.3828 8.34771C19.2188 8.28911 20.1836 8.40239 21.2422 8.64067Z" fill="#FAFAFA"/>
<path d="M16.7227 17.1797C16.7227 17.9336 17.332 18.5469 18.0898 18.5469C18.8437 18.5469 19.4531 17.9336 19.4531 17.1797C19.4531 16.4258 18.8437 15.8125 18.0898 15.8125C17.332 15.8125 16.7227 16.4258 16.7227 17.1797Z" fill="#EC796B"/>
</g>
<defs>
<clipPath id="clip0_3391_28">
<rect width="24" height="24" fill="white"/>
</clipPath>
</defs>
</svg>
